<?xml version="1.0" encoding="utf-8"?>
<!-- Generator: Adobe Illustrator 26.0.3, SVG Export Plug-In . SVG Version: 6.00 Build 0)  -->
<svg version="1.1" id="Layer_1" xmlns="http://www.w3.org/2000/svg" xmlns:xlink="http://www.w3.org/1999/xlink" x="0px" y="0px"
	 viewBox="0 0 95.9 28" style="enable-background:new 0 0 95.9 28;" xml:space="preserve">
<style type="text/css">
	.st0{fill-rule:evenodd;clip-rule:evenodd;fill:#6DDDD2;}
	.st1{fill-rule:evenodd;clip-rule:evenodd;fill:#FAFDFA;}
	.st2{enable-background:new    ;}
	.st3{fill:#FFFFFF;}
</style>
<script  id="__gaOptOutExtension" xmlns=""></script>
<g>
	<path class="st0" d="M81.6,0.3C74.1,0.3,68,6.4,68,14c0,2.5,0.7,4.9,1.9,6.9v0.4c0,4.6-3.4,6.1-3.4,6.1s4.8,0,7.3-2.2l0,0h0.1H74
		l0,0c2.2,1.6,4.8,2.4,7.6,2.4c7.5,0,13.7-6.1,13.7-13.6S89.2,0.3,81.6,0.3"/>
	<path class="st1" d="M75.2,15.6c-0.5,0-0.8-0.2-0.8-0.8c0-0.5,0.3-0.7,0.8-0.7l0,0v-0.4c0-0.2,0-0.5,0-0.7l0,0
		c-0.5,0-0.8-0.2-0.8-0.8c0-0.5,0.3-0.7,0.8-0.7h0.3c0.3-1.2,0.9-2.3,1.7-3.1c1.3-1.4,3-2.1,5-2.1c1.2,0,2.2,0.2,3.1,0.7
		s1.3,1.1,1.3,1.7c0,0.9-0.5,1.6-1.3,1.6c-0.4,0-0.8-0.1-1.3-0.4c-0.5-0.3-1.1-0.5-1.8-0.5c-1.1,0-2,0.4-2.7,1.2
		c-0.2,0.3-0.4,0.6-0.6,0.9h3c0.5,0,0.8,0.3,0.8,0.7c0,0.5-0.3,0.8-0.8,0.8h-3.4c0,0.2,0,0.5,0,0.7v0.4h2.3c0.5,0,0.8,0.3,0.8,0.7
		c0,0.5-0.3,0.8-0.8,0.8h-2c0.2,0.4,0.4,0.8,0.7,1.1c0.7,0.8,1.5,1.2,2.7,1.2c0.7,0,1.3-0.2,1.8-0.5s0.9-0.5,1.3-0.5
		c0.8,0,1.3,0.8,1.3,1.6c0,0.7-0.5,1.2-1.3,1.7c-0.9,0.5-1.9,0.7-3.1,0.7c-2,0-3.7-0.7-5-2.1c-0.9-1-1.5-2.1-1.8-3.4L75.2,15.6
		L75.2,15.6z"/>
</g>
<g class="st2">
	<path class="st3" d="M3.4,8.2v4.9l5.2-5.8C8.8,7,9.1,6.8,9.2,6.6c0.2-0.1,0.4-0.2,0.7-0.2c0.4,0,0.7,0.1,0.9,0.4
		c0.2,0.2,0.3,0.5,0.3,0.9c0,0.4-0.2,0.8-0.6,1.2l-3.2,3.3l3.7,5.7c0.3,0.4,0.5,0.7,0.6,1c0.1,0.3,0.2,0.6,0.2,0.9
		c0,0.3-0.1,0.6-0.3,0.8C11.3,20.9,11,21,10.6,21c-0.4,0-0.7-0.1-0.9-0.3c-0.2-0.2-0.4-0.4-0.6-0.7c-0.2-0.3-0.3-0.5-0.4-0.8
		l-3.1-5.2l-2.1,2.2v2.9c0,0.6-0.1,1-0.4,1.3c-0.2,0.3-0.6,0.4-1,0.4c-0.2,0-0.4-0.1-0.6-0.2c-0.2-0.1-0.4-0.3-0.5-0.5
		c-0.1-0.2-0.1-0.4-0.2-0.6c0-0.2,0-0.6,0-1V8.2c0-0.6,0.1-1,0.3-1.3c0.2-0.3,0.5-0.4,1-0.4c0.4,0,0.7,0.1,1,0.4
		C3.3,7.1,3.4,7.6,3.4,8.2z"/>
	<path class="st3" d="M15.8,8.2v10.3h5.3c0.4,0,0.8,0.1,1,0.3c0.2,0.2,0.3,0.5,0.3,0.8c0,0.3-0.1,0.6-0.3,0.8
		c-0.2,0.2-0.6,0.3-1,0.3h-6.3c-0.6,0-1-0.1-1.2-0.4c-0.3-0.3-0.4-0.7-0.4-1.3V8.2c0-0.6,0.1-1,0.4-1.3c0.2-0.3,0.6-0.4,0.9-0.4
		c0.4,0,0.7,0.1,1,0.4C15.7,7.1,15.8,7.6,15.8,8.2z"/>
	<path class="st3" d="M33.2,19.2l-0.6-1.8h-5.3l-0.6,1.8c-0.2,0.7-0.4,1.2-0.6,1.4c-0.2,0.2-0.5,0.4-0.8,0.4c-0.3,0-0.6-0.1-0.9-0.4
		C24.1,20.3,24,20,24,19.7c0-0.2,0-0.4,0.1-0.6c0.1-0.2,0.2-0.5,0.3-0.9l3.3-9.1c0.1-0.3,0.2-0.6,0.3-0.9c0.1-0.4,0.3-0.7,0.4-0.9
		C28.6,7,28.8,6.8,29,6.7s0.5-0.2,0.9-0.2c0.4,0,0.7,0.1,0.9,0.2s0.4,0.3,0.6,0.6c0.2,0.2,0.3,0.5,0.4,0.8c0.1,0.3,0.2,0.6,0.4,1.1
		l3.4,9.1c0.3,0.7,0.4,1.2,0.4,1.5c0,0.3-0.1,0.6-0.4,0.9c-0.3,0.3-0.6,0.4-0.9,0.4c-0.2,0-0.4,0-0.5-0.1c-0.1-0.1-0.3-0.2-0.4-0.3
		c-0.1-0.1-0.2-0.3-0.3-0.6C33.4,19.6,33.3,19.4,33.2,19.2z M28,15.2h3.9l-2-5.8L28,15.2z"/>
	<path class="st3" d="M43,15.3h-2.4v4c0,0.6-0.1,1-0.4,1.3c-0.2,0.3-0.6,0.4-0.9,0.4c-0.4,0-0.7-0.1-1-0.4c-0.2-0.3-0.4-0.7-0.4-1.3
		V8.4c0-0.6,0.1-1.1,0.4-1.3c0.3-0.3,0.7-0.4,1.3-0.4H43c1,0,1.8,0.1,2.3,0.2c0.5,0.2,1,0.4,1.4,0.8c0.4,0.4,0.7,0.8,0.9,1.4
		c0.2,0.5,0.3,1.1,0.3,1.8c0,1.4-0.4,2.5-1.2,3.3C45.8,14.9,44.6,15.3,43,15.3z M42.3,8.8h-1.8v4.3h1.8c0.6,0,1.1-0.1,1.6-0.2
		c0.4-0.1,0.7-0.4,1-0.7c0.2-0.3,0.3-0.7,0.3-1.3c0-0.6-0.2-1.1-0.5-1.5C44.3,9,43.5,8.8,42.3,8.8z"/>
	<path class="st3" d="M59.9,16.5c0,0.9-0.2,1.6-0.6,2.3c-0.4,0.7-1,1.2-1.8,1.6c-0.8,0.4-1.7,0.6-2.8,0.6c-1.3,0-2.3-0.3-3.2-0.8
		c-0.6-0.4-1.1-0.9-1.4-1.5c-0.4-0.6-0.6-1.2-0.6-1.8c0-0.3,0.1-0.6,0.3-0.9c0.2-0.2,0.5-0.4,0.8-0.4c0.3,0,0.5,0.1,0.7,0.3
		c0.2,0.2,0.4,0.5,0.5,0.9c0.2,0.4,0.3,0.8,0.5,1.1c0.2,0.3,0.5,0.5,0.8,0.7c0.3,0.2,0.8,0.3,1.4,0.3c0.8,0,1.4-0.2,1.9-0.6
		c0.5-0.4,0.7-0.9,0.7-1.5c0-0.5-0.1-0.8-0.4-1.1c-0.3-0.3-0.6-0.5-1-0.7c-0.4-0.2-1-0.3-1.7-0.5c-0.9-0.2-1.7-0.5-2.3-0.8
		s-1.1-0.7-1.5-1.3c-0.4-0.5-0.6-1.2-0.6-2c0-0.8,0.2-1.5,0.6-2.1c0.4-0.6,1-1.1,1.7-1.4c0.7-0.3,1.6-0.5,2.6-0.5
		c0.8,0,1.5,0.1,2.1,0.3c0.6,0.2,1.1,0.5,1.4,0.9C58.6,8,58.9,8.3,59,8.7c0.2,0.4,0.3,0.8,0.3,1.1c0,0.3-0.1,0.6-0.3,0.9
		c-0.2,0.3-0.5,0.4-0.8,0.4c-0.3,0-0.5-0.1-0.7-0.2c-0.2-0.2-0.3-0.4-0.5-0.8c-0.2-0.5-0.5-0.9-0.8-1.2c-0.3-0.3-0.9-0.4-1.6-0.4
		c-0.7,0-1.2,0.2-1.6,0.5c-0.4,0.3-0.6,0.7-0.6,1.2c0,0.3,0.1,0.5,0.2,0.7c0.1,0.2,0.3,0.4,0.6,0.5c0.2,0.1,0.5,0.3,0.8,0.3
		c0.3,0.1,0.7,0.2,1.3,0.4c0.7,0.2,1.4,0.4,2,0.6c0.6,0.2,1.1,0.5,1.5,0.8c0.4,0.3,0.7,0.7,1,1.2C59.8,15.2,59.9,15.8,59.9,16.5z"/>
	<path class="st3" d="M64.7,8.2v4.9l5.2-5.8c0.2-0.3,0.5-0.5,0.6-0.6c0.2-0.1,0.4-0.2,0.7-0.2c0.4,0,0.7,0.1,0.9,0.4
		c0.2,0.2,0.3,0.5,0.3,0.9c0,0.4-0.2,0.8-0.6,1.2l-3.2,3.3l3.7,5.7c0.3,0.4,0.5,0.7,0.6,1c0.1,0.3,0.2,0.6,0.2,0.9
		c0,0.3-0.1,0.6-0.3,0.8c-0.2,0.2-0.5,0.3-0.9,0.3c-0.4,0-0.7-0.1-0.9-0.3c-0.2-0.2-0.4-0.4-0.6-0.7c-0.2-0.3-0.3-0.5-0.4-0.8
		l-3.1-5.2l-2.1,2.2v2.9c0,0.6-0.1,1-0.4,1.3c-0.2,0.3-0.6,0.4-1,0.4c-0.2,0-0.4-0.1-0.6-0.2c-0.2-0.1-0.4-0.3-0.5-0.5
		c-0.1-0.2-0.1-0.4-0.2-0.6c0-0.2,0-0.6,0-1V8.2c0-0.6,0.1-1,0.3-1.3c0.2-0.3,0.5-0.4,1-0.4c0.4,0,0.7,0.1,1,0.4
		C64.6,7.1,64.7,7.6,64.7,8.2z"/>
</g>
</svg>
