<?xml version="1.0" standalone="no"?>
<!DOCTYPE svg PUBLIC "-//W3C//DTD SVG 20010904//EN"
 "http://www.w3.org/TR/2001/REC-SVG-20010904/DTD/svg10.dtd">
<svg version="1.0" xmlns="http://www.w3.org/2000/svg"
 width="500.000000pt" height="500.000000pt" viewBox="0 0 500.000000 500.000000"
 preserveAspectRatio="xMidYMid meet">
<g transform="translate(0.000000,500.000000) scale(0.100000,-0.100000)"
fill="#000000" stroke="none">
<path d="M2390 4600 c-30 -4 -76 -10 -101 -13 -25 -4 -68 -11 -95 -18 -27 -6
-62 -13 -79 -16 -16 -3 -91 -25 -165 -49 -447 -146 -843 -450 -1102 -846 -166
-252 -288 -570 -323 -839 -3 -24 -10 -73 -15 -109 -15 -118 -5 -432 19 -566
40 -228 108 -429 210 -624 l55 -105 -2 -95 c-6 -231 -62 -423 -177 -601 -57
-87 -201 -232 -273 -274 -28 -16 -52 -33 -52 -37 0 -10 195 5 347 28 262 38
495 121 669 237 40 26 77 54 84 62 7 8 17 15 22 15 5 0 49 -27 98 -60 125 -84
349 -192 446 -215 10 -3 61 -16 112 -30 50 -13 113 -27 140 -31 26 -3 49 -8
52 -9 42 -25 620 -25 659 0 4 2 28 6 54 9 141 17 379 96 562 187 222 110 383
226 560 404 109 110 244 278 286 355 9 16 21 35 26 42 19 24 85 152 124 240
52 118 105 278 123 368 3 14 12 59 20 100 24 124 31 207 31 380 0 149 -11 325
-21 341 -2 4 -6 24 -10 45 -26 175 -111 423 -212 613 -52 100 -157 263 -197
307 -5 6 -28 33 -50 60 -43 53 -188 200 -245 249 -134 115 -321 234 -477 305
-48 23 -97 45 -108 50 -48 22 -246 84 -308 96 -30 5 -91 18 -97 19 -5 1 -56
10 -125 21 -52 9 -408 11 -465 4z"/>
</g>
</svg>
